<?xml version="1.0" standalone="no"?>
<!DOCTYPE svg PUBLIC "-//W3C//DTD SVG 20010904//EN"
 "http://www.w3.org/TR/2001/REC-SVG-20010904/DTD/svg10.dtd">
<svg version="1.0" xmlns="http://www.w3.org/2000/svg"
 width="166.000000pt" height="261.000000pt" viewBox="0 0 166.000000 261.000000"
 preserveAspectRatio="xMidYMid meet">

<g transform="translate(0.000000,261.000000) scale(0.100000,-0.100000)"
fill="#000000" stroke="none">
<path d="M368 2297 l-128 -82 0 -740 1 -740 267 -169 c147 -93 356 -225 464
-294 l198 -125 132 83 c73 46 136 88 140 94 4 6 8 338 8 739 l0 727 -82 53
c-114 74 -457 292 -668 426 -96 61 -182 111 -190 110 -8 0 -72 -37 -142 -82z
m703 -289 c151 -96 289 -183 307 -193 17 -11 32 -22 32 -25 0 -6 -226 -150
-236 -150 -6 0 -186 112 -519 323 -55 34 -100 68 -100 75 0 15 217 153 231
148 7 -3 135 -83 285 -178z m-686 97 l115 -75 0 -716 c0 -569 -3 -714 -12
-708 -7 4 -61 39 -121 77 l-107 69 0 714 c0 393 2 714 5 714 2 0 56 -34 120
-75z m1045 -475 l0 -130 -82 -53 c-46 -29 -100 -63 -120 -76 l-38 -23 0 134 0
134 113 72 c61 40 115 72 120 72 4 0 7 -59 7 -130z m-790 15 c56 -35 108 -69
116 -76 12 -10 14 -56 12 -267 l-3 -255 -115 -73 c-63 -40 -116 -71 -118 -70
-2 2 -4 725 -2 801 0 9 8 5 110 -60z m252 -159 c9 -13 11 -490 2 -499 -3 -3
-28 8 -55 25 l-49 30 0 255 0 255 48 -28 c26 -15 50 -32 54 -38z m153 -97
l115 -72 0 -563 c0 -310 -3 -564 -7 -564 -3 0 -57 32 -120 71 l-113 70 0 565
c0 310 2 564 5 564 3 0 57 -32 120 -71z m-330 -658 l170 -107 3 -137 3 -137
-73 45 c-40 25 -122 78 -182 118 l-108 72 0 105 c1 147 1 150 10 150 4 -1 84
-49 177 -109z"/>
</g>
</svg>
